<mxfile host="app.diagrams.net" modified="2023-05-03T18:34:32.959Z" agent="Mozilla/5.0 (Windows NT 10.0; Win64; x64; rv:109.0) Gecko/20100101 Firefox/113.0" etag="R4mBpl5fyunP0Lx3gDZ7" version="21.2.3" type="device">
  <diagram name="Page-1" id="AlQgFYiAesxGKjzgry_K">
    <mxGraphModel dx="2074" dy="1106" grid="1" gridSize="10" guides="1" tooltips="1" connect="1" arrows="1" fold="1" page="1" pageScale="1" pageWidth="827" pageHeight="1169" math="0" shadow="0">
      <root>
        <mxCell id="0" />
        <mxCell id="1" parent="0" />
        <mxCell id="VzBomBVX7HgXpCq8d6OW-4" value="Création d&#39;une commande" style="text;html=1;align=center;verticalAlign=middle;resizable=0;points=[];autosize=1;strokeColor=none;fillColor=none;strokeWidth=1;fontStyle=1;fontSize=16;" parent="1" vertex="1">
          <mxGeometry x="303" y="50" width="220" height="30" as="geometry" />
        </mxCell>
        <mxCell id="VzBomBVX7HgXpCq8d6OW-14" value="Le client souhaite passer une commande" style="text;html=1;align=center;verticalAlign=middle;resizable=0;points=[];autosize=1;strokeColor=none;fillColor=none;" parent="1" vertex="1">
          <mxGeometry x="288" y="80" width="250" height="30" as="geometry" />
        </mxCell>
        <mxCell id="VzBomBVX7HgXpCq8d6OW-27" value=":Client" style="shape=umlLifeline;perimeter=lifelinePerimeter;whiteSpace=wrap;html=1;container=1;dropTarget=0;collapsible=0;recursiveResize=0;outlineConnect=0;portConstraint=eastwest;newEdgeStyle={&quot;edgeStyle&quot;:&quot;elbowEdgeStyle&quot;,&quot;elbow&quot;:&quot;vertical&quot;,&quot;curved&quot;:0,&quot;rounded&quot;:0};" parent="1" vertex="1">
          <mxGeometry x="180" y="200" width="100" height="970" as="geometry" />
        </mxCell>
        <mxCell id="VzBomBVX7HgXpCq8d6OW-50" value="" style="html=1;points=[];perimeter=orthogonalPerimeter;outlineConnect=0;targetShapes=umlLifeline;portConstraint=eastwest;newEdgeStyle={&quot;edgeStyle&quot;:&quot;elbowEdgeStyle&quot;,&quot;elbow&quot;:&quot;vertical&quot;,&quot;curved&quot;:0,&quot;rounded&quot;:0};" parent="VzBomBVX7HgXpCq8d6OW-27" vertex="1">
          <mxGeometry x="45" y="80.19999999999999" width="10" height="80" as="geometry" />
        </mxCell>
        <mxCell id="K-DtrOPmyeC8XMphnXIH-2" value="" style="html=1;points=[];perimeter=orthogonalPerimeter;outlineConnect=0;targetShapes=umlLifeline;portConstraint=eastwest;newEdgeStyle={&quot;edgeStyle&quot;:&quot;elbowEdgeStyle&quot;,&quot;elbow&quot;:&quot;vertical&quot;,&quot;curved&quot;:0,&quot;rounded&quot;:0};" vertex="1" parent="VzBomBVX7HgXpCq8d6OW-27">
          <mxGeometry x="425" y="220" width="10" height="80.2" as="geometry" />
        </mxCell>
        <mxCell id="K-DtrOPmyeC8XMphnXIH-3" value="" style="html=1;points=[];perimeter=orthogonalPerimeter;outlineConnect=0;targetShapes=umlLifeline;portConstraint=eastwest;newEdgeStyle={&quot;edgeStyle&quot;:&quot;elbowEdgeStyle&quot;,&quot;elbow&quot;:&quot;vertical&quot;,&quot;curved&quot;:0,&quot;rounded&quot;:0};" vertex="1" parent="VzBomBVX7HgXpCq8d6OW-27">
          <mxGeometry x="45" y="220.20000000000005" width="10" height="80" as="geometry" />
        </mxCell>
        <mxCell id="K-DtrOPmyeC8XMphnXIH-4" value="AfficherPanier" style="html=1;verticalAlign=bottom;endArrow=open;dashed=1;endSize=8;edgeStyle=elbowEdgeStyle;elbow=vertical;curved=0;rounded=0;" edge="1" parent="VzBomBVX7HgXpCq8d6OW-27" source="K-DtrOPmyeC8XMphnXIH-2" target="K-DtrOPmyeC8XMphnXIH-3">
          <mxGeometry relative="1" as="geometry">
            <mxPoint x="160" y="295.20000000000005" as="targetPoint" />
            <Array as="points">
              <mxPoint x="140" y="300" />
            </Array>
          </mxGeometry>
        </mxCell>
        <mxCell id="K-DtrOPmyeC8XMphnXIH-5" value="AjouterPlatsDansPanier" style="html=1;verticalAlign=bottom;endArrow=block;edgeStyle=elbowEdgeStyle;elbow=vertical;curved=0;rounded=0;" edge="1" parent="VzBomBVX7HgXpCq8d6OW-27" source="K-DtrOPmyeC8XMphnXIH-3" target="K-DtrOPmyeC8XMphnXIH-2">
          <mxGeometry x="0.0009" relative="1" as="geometry">
            <mxPoint x="160" y="220.20000000000005" as="sourcePoint" />
            <mxPoint x="210" y="220" as="targetPoint" />
            <Array as="points">
              <mxPoint x="130" y="220" />
            </Array>
            <mxPoint as="offset" />
          </mxGeometry>
        </mxCell>
        <mxCell id="K-DtrOPmyeC8XMphnXIH-11" value="" style="html=1;points=[];perimeter=orthogonalPerimeter;outlineConnect=0;targetShapes=umlLifeline;portConstraint=eastwest;newEdgeStyle={&quot;edgeStyle&quot;:&quot;elbowEdgeStyle&quot;,&quot;elbow&quot;:&quot;vertical&quot;,&quot;curved&quot;:0,&quot;rounded&quot;:0};" vertex="1" parent="VzBomBVX7HgXpCq8d6OW-27">
          <mxGeometry x="45" y="400" width="10" height="80" as="geometry" />
        </mxCell>
        <mxCell id="K-DtrOPmyeC8XMphnXIH-12" value="" style="html=1;points=[];perimeter=orthogonalPerimeter;outlineConnect=0;targetShapes=umlLifeline;portConstraint=eastwest;newEdgeStyle={&quot;edgeStyle&quot;:&quot;elbowEdgeStyle&quot;,&quot;elbow&quot;:&quot;vertical&quot;,&quot;curved&quot;:0,&quot;rounded&quot;:0};" vertex="1" parent="VzBomBVX7HgXpCq8d6OW-27">
          <mxGeometry x="425" y="400" width="10" height="80" as="geometry" />
        </mxCell>
        <mxCell id="K-DtrOPmyeC8XMphnXIH-13" value="Connexion a l&#39;application" style="html=1;verticalAlign=bottom;endArrow=block;edgeStyle=elbowEdgeStyle;elbow=vertical;curved=0;rounded=0;" edge="1" parent="VzBomBVX7HgXpCq8d6OW-27" source="K-DtrOPmyeC8XMphnXIH-11" target="K-DtrOPmyeC8XMphnXIH-12">
          <mxGeometry relative="1" as="geometry">
            <mxPoint x="100" y="440" as="sourcePoint" />
            <Array as="points">
              <mxPoint x="130" y="400" />
              <mxPoint x="250" y="440" />
            </Array>
          </mxGeometry>
        </mxCell>
        <mxCell id="K-DtrOPmyeC8XMphnXIH-14" value="AfficherCommande" style="html=1;verticalAlign=bottom;endArrow=open;dashed=1;endSize=8;edgeStyle=elbowEdgeStyle;elbow=vertical;curved=0;rounded=0;" edge="1" parent="VzBomBVX7HgXpCq8d6OW-27" source="K-DtrOPmyeC8XMphnXIH-12" target="K-DtrOPmyeC8XMphnXIH-11">
          <mxGeometry relative="1" as="geometry">
            <mxPoint x="100" y="515" as="targetPoint" />
            <Array as="points">
              <mxPoint x="170" y="480" />
              <mxPoint x="60" y="520" />
            </Array>
          </mxGeometry>
        </mxCell>
        <mxCell id="VzBomBVX7HgXpCq8d6OW-64" value="" style="html=1;points=[];perimeter=orthogonalPerimeter;outlineConnect=0;targetShapes=umlLifeline;portConstraint=eastwest;newEdgeStyle={&quot;edgeStyle&quot;:&quot;elbowEdgeStyle&quot;,&quot;elbow&quot;:&quot;vertical&quot;,&quot;curved&quot;:0,&quot;rounded&quot;:0};" parent="VzBomBVX7HgXpCq8d6OW-27" vertex="1">
          <mxGeometry x="45" y="720.2" width="10" height="80" as="geometry" />
        </mxCell>
        <mxCell id="VzBomBVX7HgXpCq8d6OW-65" value="" style="html=1;points=[];perimeter=orthogonalPerimeter;outlineConnect=0;targetShapes=umlLifeline;portConstraint=eastwest;newEdgeStyle={&quot;edgeStyle&quot;:&quot;elbowEdgeStyle&quot;,&quot;elbow&quot;:&quot;vertical&quot;,&quot;curved&quot;:0,&quot;rounded&quot;:0};" parent="VzBomBVX7HgXpCq8d6OW-27" vertex="1">
          <mxGeometry x="425" y="720" width="10" height="80.2" as="geometry" />
        </mxCell>
        <mxCell id="VzBomBVX7HgXpCq8d6OW-66" value="AfficherMoyensPaiement" style="html=1;verticalAlign=bottom;endArrow=open;dashed=1;endSize=8;edgeStyle=elbowEdgeStyle;elbow=vertical;curved=0;rounded=0;" parent="VzBomBVX7HgXpCq8d6OW-27" source="VzBomBVX7HgXpCq8d6OW-65" target="VzBomBVX7HgXpCq8d6OW-64" edge="1">
          <mxGeometry relative="1" as="geometry">
            <mxPoint x="160" y="795.2" as="targetPoint" />
            <Array as="points">
              <mxPoint x="140" y="800" />
            </Array>
          </mxGeometry>
        </mxCell>
        <mxCell id="VzBomBVX7HgXpCq8d6OW-67" value="DonnerInformationsLivraison" style="html=1;verticalAlign=bottom;endArrow=block;edgeStyle=elbowEdgeStyle;elbow=vertical;curved=0;rounded=0;" parent="VzBomBVX7HgXpCq8d6OW-27" source="VzBomBVX7HgXpCq8d6OW-64" target="VzBomBVX7HgXpCq8d6OW-65" edge="1">
          <mxGeometry x="0.0009" relative="1" as="geometry">
            <mxPoint x="160" y="720.2" as="sourcePoint" />
            <mxPoint x="210" y="720" as="targetPoint" />
            <Array as="points">
              <mxPoint x="130" y="720" />
            </Array>
            <mxPoint as="offset" />
          </mxGeometry>
        </mxCell>
        <mxCell id="VzBomBVX7HgXpCq8d6OW-68" value="" style="html=1;points=[];perimeter=orthogonalPerimeter;outlineConnect=0;targetShapes=umlLifeline;portConstraint=eastwest;newEdgeStyle={&quot;edgeStyle&quot;:&quot;elbowEdgeStyle&quot;,&quot;elbow&quot;:&quot;vertical&quot;,&quot;curved&quot;:0,&quot;rounded&quot;:0};" parent="VzBomBVX7HgXpCq8d6OW-27" vertex="1">
          <mxGeometry x="45" y="845.2" width="10" height="80" as="geometry" />
        </mxCell>
        <mxCell id="VzBomBVX7HgXpCq8d6OW-69" value="" style="html=1;points=[];perimeter=orthogonalPerimeter;outlineConnect=0;targetShapes=umlLifeline;portConstraint=eastwest;newEdgeStyle={&quot;edgeStyle&quot;:&quot;elbowEdgeStyle&quot;,&quot;elbow&quot;:&quot;vertical&quot;,&quot;curved&quot;:0,&quot;rounded&quot;:0};" parent="VzBomBVX7HgXpCq8d6OW-27" vertex="1">
          <mxGeometry x="425" y="845" width="10" height="80.2" as="geometry" />
        </mxCell>
        <mxCell id="VzBomBVX7HgXpCq8d6OW-70" value="NotificationDétailsLivraison" style="html=1;verticalAlign=bottom;endArrow=open;dashed=1;endSize=8;edgeStyle=elbowEdgeStyle;elbow=vertical;curved=0;rounded=0;" parent="VzBomBVX7HgXpCq8d6OW-27" source="VzBomBVX7HgXpCq8d6OW-69" target="VzBomBVX7HgXpCq8d6OW-68" edge="1">
          <mxGeometry relative="1" as="geometry">
            <mxPoint x="160" y="920.2" as="targetPoint" />
            <Array as="points">
              <mxPoint x="140" y="925" />
            </Array>
          </mxGeometry>
        </mxCell>
        <mxCell id="VzBomBVX7HgXpCq8d6OW-71" value="PayerCommande" style="html=1;verticalAlign=bottom;endArrow=block;edgeStyle=elbowEdgeStyle;elbow=vertical;curved=0;rounded=0;" parent="VzBomBVX7HgXpCq8d6OW-27" source="VzBomBVX7HgXpCq8d6OW-68" target="VzBomBVX7HgXpCq8d6OW-69" edge="1">
          <mxGeometry x="0.0009" relative="1" as="geometry">
            <mxPoint x="160" y="845.2" as="sourcePoint" />
            <mxPoint x="210" y="845" as="targetPoint" />
            <Array as="points">
              <mxPoint x="130" y="845" />
            </Array>
            <mxPoint as="offset" />
          </mxGeometry>
        </mxCell>
        <mxCell id="VzBomBVX7HgXpCq8d6OW-28" value=":Application" style="shape=umlLifeline;perimeter=lifelinePerimeter;whiteSpace=wrap;html=1;container=1;dropTarget=0;collapsible=0;recursiveResize=0;outlineConnect=0;portConstraint=eastwest;newEdgeStyle={&quot;edgeStyle&quot;:&quot;elbowEdgeStyle&quot;,&quot;elbow&quot;:&quot;vertical&quot;,&quot;curved&quot;:0,&quot;rounded&quot;:0};" parent="1" vertex="1">
          <mxGeometry x="560" y="200" width="100" height="970" as="geometry" />
        </mxCell>
        <mxCell id="VzBomBVX7HgXpCq8d6OW-47" value="" style="html=1;points=[];perimeter=orthogonalPerimeter;outlineConnect=0;targetShapes=umlLifeline;portConstraint=eastwest;newEdgeStyle={&quot;edgeStyle&quot;:&quot;elbowEdgeStyle&quot;,&quot;elbow&quot;:&quot;vertical&quot;,&quot;curved&quot;:0,&quot;rounded&quot;:0};" parent="VzBomBVX7HgXpCq8d6OW-28" vertex="1">
          <mxGeometry x="45" y="80" width="10" height="80.2" as="geometry" />
        </mxCell>
        <mxCell id="K-DtrOPmyeC8XMphnXIH-7" value="" style="html=1;points=[];perimeter=orthogonalPerimeter;outlineConnect=0;targetShapes=umlLifeline;portConstraint=eastwest;newEdgeStyle={&quot;edgeStyle&quot;:&quot;elbowEdgeStyle&quot;,&quot;elbow&quot;:&quot;vertical&quot;,&quot;curved&quot;:0,&quot;rounded&quot;:0};" vertex="1" parent="VzBomBVX7HgXpCq8d6OW-28">
          <mxGeometry x="45" y="540" width="10" height="80.2" as="geometry" />
        </mxCell>
        <mxCell id="K-DtrOPmyeC8XMphnXIH-8" value="" style="html=1;points=[];perimeter=orthogonalPerimeter;outlineConnect=0;targetShapes=umlLifeline;portConstraint=eastwest;newEdgeStyle={&quot;edgeStyle&quot;:&quot;elbowEdgeStyle&quot;,&quot;elbow&quot;:&quot;vertical&quot;,&quot;curved&quot;:0,&quot;rounded&quot;:0};" vertex="1" parent="VzBomBVX7HgXpCq8d6OW-28">
          <mxGeometry x="-335" y="540.2" width="10" height="80" as="geometry" />
        </mxCell>
        <mxCell id="K-DtrOPmyeC8XMphnXIH-9" value="AfficherCommande" style="html=1;verticalAlign=bottom;endArrow=open;dashed=1;endSize=8;edgeStyle=elbowEdgeStyle;elbow=vertical;curved=0;rounded=0;" edge="1" parent="VzBomBVX7HgXpCq8d6OW-28" source="K-DtrOPmyeC8XMphnXIH-7" target="K-DtrOPmyeC8XMphnXIH-8">
          <mxGeometry relative="1" as="geometry">
            <mxPoint x="-220" y="615.2" as="targetPoint" />
            <Array as="points">
              <mxPoint x="-240" y="620" />
            </Array>
          </mxGeometry>
        </mxCell>
        <mxCell id="K-DtrOPmyeC8XMphnXIH-10" value="CréationCompteApplication" style="html=1;verticalAlign=bottom;endArrow=block;edgeStyle=elbowEdgeStyle;elbow=vertical;curved=0;rounded=0;" edge="1" parent="VzBomBVX7HgXpCq8d6OW-28" source="K-DtrOPmyeC8XMphnXIH-8" target="K-DtrOPmyeC8XMphnXIH-7">
          <mxGeometry x="0.0009" relative="1" as="geometry">
            <mxPoint x="-220" y="540.2" as="sourcePoint" />
            <mxPoint x="-170" y="540" as="targetPoint" />
            <Array as="points">
              <mxPoint x="-250" y="540" />
            </Array>
            <mxPoint as="offset" />
          </mxGeometry>
        </mxCell>
        <mxCell id="VzBomBVX7HgXpCq8d6OW-49" value="AfficherListePlatsDuJour" style="html=1;verticalAlign=bottom;endArrow=open;dashed=1;endSize=8;edgeStyle=elbowEdgeStyle;elbow=vertical;curved=0;rounded=0;" parent="1" source="VzBomBVX7HgXpCq8d6OW-47" target="VzBomBVX7HgXpCq8d6OW-50" edge="1">
          <mxGeometry relative="1" as="geometry">
            <mxPoint x="340" y="355.20000000000005" as="targetPoint" />
            <Array as="points">
              <mxPoint x="320" y="360" />
            </Array>
          </mxGeometry>
        </mxCell>
        <mxCell id="VzBomBVX7HgXpCq8d6OW-48" value="ConsulterListePlatsDuJour" style="html=1;verticalAlign=bottom;endArrow=block;edgeStyle=elbowEdgeStyle;elbow=vertical;curved=0;rounded=0;" parent="1" source="VzBomBVX7HgXpCq8d6OW-50" target="VzBomBVX7HgXpCq8d6OW-47" edge="1">
          <mxGeometry x="0.0009" relative="1" as="geometry">
            <mxPoint x="340" y="280.2" as="sourcePoint" />
            <mxPoint x="390" y="280" as="targetPoint" />
            <Array as="points">
              <mxPoint x="310" y="280" />
            </Array>
            <mxPoint as="offset" />
          </mxGeometry>
        </mxCell>
        <mxCell id="VzBomBVX7HgXpCq8d6OW-53" value="Alternative" style="shape=umlFrame;whiteSpace=wrap;html=1;pointerEvents=0;" parent="1" vertex="1">
          <mxGeometry x="138" y="560" width="550" height="280" as="geometry" />
        </mxCell>
        <mxCell id="VzBomBVX7HgXpCq8d6OW-55" value="" style="endArrow=none;dashed=1;html=1;rounded=0;exitX=0.001;exitY=0.5;exitDx=0;exitDy=0;exitPerimeter=0;entryX=1;entryY=0.499;entryDx=0;entryDy=0;entryPerimeter=0;" parent="1" source="VzBomBVX7HgXpCq8d6OW-53" target="VzBomBVX7HgXpCq8d6OW-53" edge="1">
          <mxGeometry width="50" height="50" relative="1" as="geometry">
            <mxPoint x="760" y="1030" as="sourcePoint" />
            <mxPoint x="810" y="980" as="targetPoint" />
          </mxGeometry>
        </mxCell>
        <mxCell id="VzBomBVX7HgXpCq8d6OW-72" value="&lt;div&gt;SI&lt;/div&gt;&lt;div&gt;le client&lt;/div&gt;&lt;div&gt;possède&lt;/div&gt;&lt;div&gt;un compte&lt;br&gt;&lt;/div&gt;" style="text;html=1;align=center;verticalAlign=middle;resizable=0;points=[];autosize=1;strokeColor=none;fillColor=none;fontStyle=1" parent="1" vertex="1">
          <mxGeometry x="144" y="608" width="80" height="70" as="geometry" />
        </mxCell>
        <mxCell id="VzBomBVX7HgXpCq8d6OW-73" value="SINON" style="text;html=1;align=center;verticalAlign=middle;resizable=0;points=[];autosize=1;strokeColor=none;fillColor=none;fontStyle=1" parent="1" vertex="1">
          <mxGeometry x="154" y="758" width="60" height="30" as="geometry" />
        </mxCell>
      </root>
    </mxGraphModel>
  </diagram>
</mxfile>
